
    <svg class="" viewBox="0 0 1393 793" fill="none" xmlns="http://www.w3.org/2000/svg">
<circle cx="794" cy="621" r="162.988" stroke="#074A74" stroke-opacity="0.1" stroke-width="2.02469"/>
<circle cx="794" cy="621" r="114.733" fill="#074A74" fill-opacity="0.1"/>
<circle cx="794" cy="621" r="67.4897" fill="#D5FAFC"/>
<circle cx="118" cy="824" r="52.6728" stroke="#074A74" stroke-opacity="0.1" stroke-width="0.654321"/>
<circle cx="118" cy="824" r="37.0782" fill="#074A74" fill-opacity="0.1"/>
<circle cx="1340" cy="749" r="52.6728" stroke="#074A74" stroke-opacity="0.1" stroke-width="0.654321"/>
<circle cx="1340" cy="749" r="37.0782" fill="#074A74" fill-opacity="0.1"/>
<circle cx="1340" cy="749" r="21.8107" fill="#D5FAFC"/>
<circle cx="650" cy="130" r="52.6728" stroke="#074A74" stroke-opacity="0.1" stroke-width="0.654321"/>
<circle cx="650" cy="130" r="37.0782" fill="#074A74" fill-opacity="0.1"/>
<circle cx="650" cy="130" r="21.8107" fill="#D5FAFC"/>
<circle cx="110.5" cy="110.5" r="109.818" stroke="#074A74" stroke-opacity="0.1" stroke-width="1.3642"/>
<circle cx="110.5" cy="110.5" r="77.3045" fill="#074A74" fill-opacity="0.1"/>
<circle cx="110.5" cy="110.5" r="45.4733" fill="#D5FAFC"/>
<circle cx="1303" cy="314" r="43.7284" stroke="#074A74" stroke-opacity="0.1" stroke-width="0.54321"/>
<circle cx="1303" cy="314" r="30.7819" fill="#074A74" fill-opacity="0.1"/>
<circle cx="1303" cy="314" r="18.107" fill="#D5FAFC"/>
<circle cx="96" cy="517" r="43.7284" stroke="#074A74" stroke-opacity="0.1" stroke-width="0.54321"/>
<circle cx="96" cy="517" r="30.7819" fill="#074A74" fill-opacity="0.1"/>
<circle cx="96" cy="517" r="18.107" fill="#D5FAFC"/>
</svg>
